<?xml version="1.0" encoding="UTF-8" standalone="no"?>
<!-- Created with Spiro2SVG v0.92 (http://github.com/alvinpenner/Spiro2SVG) -->

<svg
   xmlns:dc="http://purl.org/dc/elements/1.1/"
   xmlns:cc="http://creativecommons.org/ns#"
   xmlns:rdf="http://www.w3.org/1999/02/22-rdf-syntax-ns#"
   xmlns:svg="http://www.w3.org/2000/svg"
   xmlns="http://www.w3.org/2000/svg"
   xmlns:sodipodi="http://sodipodi.sourceforge.net/DTD/sodipodi-0.dtd"
   xmlns:inkscape="http://www.inkscape.org/namespaces/inkscape"
   version="1.1"
   height="500"
   width="500"
   id="svg2"
   inkscape:version="0.91 r13725"
   sodipodi:docname="decor3.svg">
  <defs
     id="defs12" />
  <sodipodi:namedview
     pagecolor="#ffffff"
     bordercolor="#666666"
     borderopacity="1"
     objecttolerance="10"
     gridtolerance="10"
     guidetolerance="10"
     inkscape:pageopacity="0"
     inkscape:pageshadow="2"
     inkscape:window-width="640"
     inkscape:window-height="480"
     id="namedview10"
     showgrid="false"
     inkscape:zoom="0.58439955"
     inkscape:cx="372.04724"
     inkscape:cy="238.9854"
     inkscape:current-layer="svg2" />
  <metadata
     id="metadata4">
    <rdf:RDF>
      <cc:Work
         rdf:about="">
        <dc:format>image/svg+xml</dc:format>
        <dc:type
           rdf:resource="http://purl.org/dc/dcmitype/StillImage" />
      </cc:Work>
    </rdf:RDF>
  </metadata>
  <g
     inkscape:label="Spiro2SVG"
     inkscape:groupmode="layer"
     id="g6"
     transform="matrix(1.5115206,0,0,1.5115206,-350.15674,-336.35785)">
    <path
       d="m 536.8504,396.8504 c 0,23.46076 -3.0817,55.3171 -13.8847,55.3171 -7.84424,0 -17.62805,-16.7961 -28.3639,-35.2266 -15.25048,-26.18092 -32.13915,-55.17418 -52.55065,-55.17418 -21.75281,0 -40.02533,32.92905 -57.07492,63.65421 -12.79407,23.05624 -24.66916,44.45645 -34.74195,44.45645 -14.65858,0 -19.57974,-45.32126 -19.57974,-70.14145 0,-12.5719 1.26256,-24.70785 5.13223,-24.70785 4.61466,0 11.35257,17.25852 18.72543,36.14337 11.88007,30.42959 25.64182,65.67895 42.3382,65.67895 16.69638,0 30.45813,-35.24936 42.3382,-65.67895 7.37286,-18.88485 14.11078,-36.14337 18.72543,-36.14337 3.86967,0 5.13223,12.13595 5.13223,24.70785 0,24.82019 -4.92116,70.14145 -19.57974,70.14145 -10.07278,0 -21.94787,-21.40021 -34.74194,-44.45645 -17.04958,-30.72516 -35.32211,-63.65421 -57.07492,-63.65421 -20.4115,0 -37.30016,28.99326 -52.55066,55.17418 -10.73584,18.4305 -20.51962,35.2266 -28.3639,35.2266 -10.803,0 -13.8847,-31.85634 -13.8847,-55.3171 0,-23.46075 3.0817,-55.3171 13.8847,-55.3171 7.84428,0 17.62806,16.7961 28.3639,35.22662 15.2505,26.18091 32.13916,55.17416 52.55066,55.17416 21.75281,0 40.02534,-32.92904 57.07492,-63.6542 12.79407,-23.05625 24.66916,-44.45645 34.74194,-44.45645 14.65858,0 19.57974,45.32125 19.57974,70.14144 0,12.5719 -1.26256,24.70786 -5.13223,24.70786 -4.61465,0 -11.35257,-17.25853 -18.72543,-36.14337 -11.88007,-30.4296 -25.64182,-65.67896 -42.3382,-65.67896 -16.69638,0 -30.45813,35.24936 -42.3382,65.67896 -7.37286,18.88484 -14.11077,36.14337 -18.72543,36.14337 -3.86967,0 -5.13223,-12.13596 -5.13223,-24.70786 0,-24.82019 4.92116,-70.14144 19.57974,-70.14144 10.07279,0 21.94788,21.4002 34.74195,44.45645 17.04959,30.72516 35.32211,63.6542 57.07492,63.6542 20.4115,0 37.30017,-28.99325 52.55065,-55.17416 10.73585,-18.43052 20.51966,-35.22662 28.3639,-35.22662 10.803,0 13.8847,31.85635 13.8847,55.3171 z"
       style="fill:#ddddff;fill-opacity:1;fill-rule:evenodd;stroke:#000000;stroke-width:1px;stroke-miterlimit:20;stroke-opacity:1"
       id="path8"
       inkscape:connector-curvature="0" />
  </g>
</svg>
