<?xml version="1.0" encoding="UTF-8" standalone="no"?>
<!-- Created with Spiro2SVG v0.92 (http://github.com/alvinpenner/Spiro2SVG) -->

<svg
   xmlns:dc="http://purl.org/dc/elements/1.1/"
   xmlns:cc="http://creativecommons.org/ns#"
   xmlns:rdf="http://www.w3.org/1999/02/22-rdf-syntax-ns#"
   xmlns:svg="http://www.w3.org/2000/svg"
   xmlns="http://www.w3.org/2000/svg"
   xmlns:sodipodi="http://sodipodi.sourceforge.net/DTD/sodipodi-0.dtd"
   xmlns:inkscape="http://www.inkscape.org/namespaces/inkscape"
   version="1.1"
   height="500"
   width="500"
   id="svg2"
   inkscape:version="0.91 r13725"
   sodipodi:docname="Farris_1_7_-17.svg">
  <defs
     id="defs12" />
  <sodipodi:namedview
     pagecolor="#ffffff"
     bordercolor="#666666"
     borderopacity="1"
     objecttolerance="10"
     gridtolerance="10"
     guidetolerance="10"
     inkscape:pageopacity="0"
     inkscape:pageshadow="2"
     inkscape:window-width="999"
     inkscape:window-height="828"
     id="namedview10"
     showgrid="false"
     units="px"
     inkscape:zoom="0.50542728"
     inkscape:cx="-16.732725"
     inkscape:cy="160.78089"
     inkscape:window-x="389"
     inkscape:window-y="0"
     inkscape:window-maximized="0"
     inkscape:current-layer="g6"
     inkscape:document-units="px" />
  <metadata
     id="metadata4">
    <rdf:RDF>
      <cc:Work
         rdf:about="">
        <dc:format>image/svg+xml</dc:format>
        <dc:type
           rdf:resource="http://purl.org/dc/dcmitype/StillImage" />
        <dc:title></dc:title>
      </cc:Work>
    </rdf:RDF>
  </metadata>
  <g
     inkscape:label="Spiro2SVG"
     inkscape:groupmode="layer"
     id="g6"
     transform="translate(0,-552.36216)">
    <path
       d="m 456.82422,859.37627 c 2.2639,0 3.47685,-0.76388 3.47685,-1.99267 0,-4.55441 -16.6629,-14.38647 -45.87655,-14.38647 -63.85828,0 -117.50952,46.97944 -117.50952,71.66194 0,5.67287 2.83404,8.9649 7.2572,8.9649 12.86096,0 33.95542,-27.83223 33.95542,-67.59538 0,-40.07938 -21.4313,-68.48302 -36.7674,-68.48302 -6.59125,0 -11.02802,5.24666 -11.02802,14.01415 0,30.28448 52.93665,76.28317 104.88226,76.28317 19.11036,0 30.11836,-6.22568 30.11836,-11.00274 0,-2.67758 -3.4583,-4.69712 -9.8104,-4.69712 -38.58774,0 -110.74417,74.5282 -110.74417,133.10999 0,12.10048 3.07861,18.60708 5.64895,18.60708 1.72415,0 3.12747,-2.9277 3.12747,-8.3822 0,-36.89889 -64.21825,-108.24737 -116.83783,-108.24737 -13.99877,0 -21.93712,5.04977 -21.93712,10.77398 0,6.58438 10.50338,13.17166 28.08477,13.17166 44.48333,0 91.47143,-42.16882 91.47143,-71.041 0,-8.8801 -4.4449,-14.2503 -11.05566,-14.2503 -15.4061,0 -37.18154,29.1657 -37.18154,72.4232 0,47.523 26.2816,80.26196 37.42065,80.26196 2.32412,0 3.68255,-1.42523 3.68255,-3.93886 0,-14.3081 -44.01492,-51.5631 -108.84668,-51.5631 -48.72742,0 -77.81254,21.04536 -77.81254,28.0742 0,1.1778 0.81659,1.8503 2.31232,1.8503 12.22218,0 53.57993,-44.90505 53.57993,-107.20812 0,-40.29306 -17.29809,-64.9527 -28.51803,-64.9527 -4.4748,0 -7.45673,3.9224 -7.45673,10.61667 0,26.22147 45.75103,69.96185 91.06867,69.96185 19.40686,0 31.24276,-8.02157 31.24276,-16.67443 0,-8.55204 -11.56167,-16.41827 -30.97348,-16.41827 -51.29565,0 -103.75309,54.92852 -103.75309,82.14724 0,4.87781 1.68467,7.58752 4.13133,7.58752 5.78488,0 14.77917,-15.14883 14.77917,-42.11108 0,-71.13574 -62.608227,-132.50778 -82.900477,-132.50778 -2.26393,0 -3.47688,0.76388 -3.47688,1.99267 0,4.55443 16.66289,14.38648 45.87654,14.38648 63.858287,0 117.509517,-46.97943 117.509517,-71.66195 0,-5.67286 -2.83403,-8.96488 -7.2572,-8.96488 -12.86096,0 -33.95543,27.83221 -33.95543,67.59536 0,40.07938 21.43132,68.48304 36.7674,68.48304 6.59126,0 11.02802,-5.24668 11.02802,-14.01416 0,-30.28449 -52.93664,-76.28318 -104.88227,-76.28318 -19.110367,0 -30.118337,6.22568 -30.118337,11.00275 0,2.67757 3.4583,4.69711 9.81039,4.69711 38.587747,0 110.744177,-74.52819 110.744177,-133.10998 0,-12.10048 -3.07861,-18.60713 -5.64896,-18.60713 -1.72415,0 -3.12747,2.92773 -3.12747,8.38229 0,36.89886 64.21825,108.24733 116.83783,108.24733 13.99878,0 21.93712,-5.04977 21.93712,-10.77399 0,-6.58438 -10.50337,-13.17166 -28.08476,-13.17166 -44.48334,0 -91.47144,42.16882 -91.47144,71.04102 0,8.88008 4.44492,14.25028 11.05567,14.25028 15.40609,0 37.18153,-29.1657 37.18153,-72.4232 0,-47.52304 -26.2816,-80.26196 -37.42064,-80.26196 -2.32413,0 -3.68256,1.42525 -3.68256,3.93886 0,14.30809 44.01493,51.5631 108.84668,51.5631 48.72745,0 77.81252,-21.04534 77.81252,-28.07424 0,-1.17775 -0.8166,-1.85025 -2.3123,-1.85025 -12.2222,0 -53.57993,44.90505 -53.57993,107.20812 0,40.29307 17.2981,64.95269 28.51803,64.95269 4.4748,0 7.45673,-3.92239 7.45673,-10.61667 0,-26.22145 -45.75103,-69.96185 -91.06866,-69.96185 -19.40687,0 -31.24277,8.02158 -31.24277,16.67444 0,8.55203 11.56168,16.41826 30.97348,16.41826 51.29566,0 103.75312,-54.9285 103.75312,-82.14723 0,-4.87781 -1.6847,-7.58753 -4.13135,-7.58753 -5.78491,0 -14.77915,15.14884 -14.77915,42.11109 0,71.13574 62.6082,132.50777 82.9005,132.50777 z"
       style="fill:#b8e0cc;fill-opacity:1;fill-rule:evenodd;stroke:#00006a;stroke-width:1.70000005px;stroke-miterlimit:20;stroke-opacity:1"
       id="path8"
       inkscape:connector-curvature="0" />
  </g>
</svg>
