<?xml version="1.0" encoding="UTF-8" standalone="no"?>
<!-- Created with Spiro2SVG v0.92 (http://github.com/alvinpenner/Spiro2SVG) -->

<svg
   xmlns:dc="http://purl.org/dc/elements/1.1/"
   xmlns:cc="http://creativecommons.org/ns#"
   xmlns:rdf="http://www.w3.org/1999/02/22-rdf-syntax-ns#"
   xmlns:svg="http://www.w3.org/2000/svg"
   xmlns="http://www.w3.org/2000/svg"
   xmlns:sodipodi="http://sodipodi.sourceforge.net/DTD/sodipodi-0.dtd"
   xmlns:inkscape="http://www.inkscape.org/namespaces/inkscape"
   version="1.1"
   height="500"
   width="500"
   id="svg2"
   inkscape:version="0.91 r13725"
   sodipodi:docname="meduza.svg">
  <defs
     id="defs12" />
  <sodipodi:namedview
     pagecolor="#ffffff"
     bordercolor="#666666"
     borderopacity="1"
     objecttolerance="10"
     gridtolerance="10"
     guidetolerance="10"
     inkscape:pageopacity="0"
     inkscape:pageshadow="2"
     inkscape:window-width="640"
     inkscape:window-height="480"
     id="namedview10"
     showgrid="false"
     inkscape:zoom="0.58439955"
     inkscape:cx="372.04724"
     inkscape:cy="524.46994"
     inkscape:current-layer="g6" />
  <metadata
     id="metadata4">
    <rdf:RDF>
      <cc:Work
         rdf:about="">
        <dc:format>image/svg+xml</dc:format>
        <dc:type
           rdf:resource="http://purl.org/dc/dcmitype/StillImage" />
      </cc:Work>
    </rdf:RDF>
  </metadata>
  <g
     inkscape:label="Spiro2SVG"
     inkscape:groupmode="layer"
     id="g6">
    <path
       d="m 455.53001,257.02067 c 0,93.20306 -135.84513,157.94232 -185.80668,157.94232 -10.48431,0 -17.97871,-2.85087 -17.97871,-10.24052 0,-11.46383 18.03668,-29.68809 33.82319,-45.63875 15.77551,-15.93957 31.06252,-31.38551 31.06252,-41.68045 0,-5.75169 -4.77151,-12.14092 -28.86339,-12.14092 -70.01306,0 -225.608767,53.9597 -225.608767,66.28355 0,1.18867 1.447461,1.80016 4.088378,1.80016 23.780063,0 137.915089,-49.58452 137.915089,-143.6638 0,-63.59221 -52.14809,-117.04034 -77.19173,-142.708183 -8.50082,-8.712761 -14.24173,-14.596829 -14.24173,-16.913292 0,-0.720592 0.55546,-1.100648 1.78015,-1.100648 21.39827,0 272.14513,116.028753 272.14513,154.039323 0,7.02916 -8.57516,10.08335 -20.65947,10.08335 -28.25804,0 -70.77402,-16.70059 -70.77402,-30.97103 0,-7.75448 12.55408,-12.65392 31.42858,-12.65392 43.2277,0 110.57489,25.6988 110.57489,78.68003 0,90.95648 -198.49177,192.7167 -244.19597,192.7167 -7.99629,0 -10.27616,-3.11497 -10.27616,-6.94317 0,-7.91245 9.73956,-21.76559 21.36057,-38.29489 18.81458,-26.76113 43.52516,-61.90835 43.52516,-95.38359 0,-60.36569 -80.35524,-81.13237 -139.36535,-81.13237 -37.347598,0 -64.420084,8.31834 -64.420084,17.9201 0,9.60176 27.072486,17.9201 64.420084,17.9201 59.01011,0 139.36535,-20.76665 139.36535,-81.13234 0,-33.47527 -24.71058,-68.62247 -43.52516,-95.383595 -11.62101,-16.529325 -21.36057,-30.382458 -21.36057,-38.294891 0,-3.828223 2.27987,-6.943188 10.27616,-6.943188 45.7042,0 244.19597,101.760234 244.19597,192.716694 0,52.98123 -67.34719,78.68008 -110.57489,78.68008 -18.8745,0 -31.42858,-4.89949 -31.42858,-12.65392 0,-14.27049 42.51598,-30.97105 70.77402,-30.97105 12.08431,0 20.65947,3.05416 20.65947,10.08334 0,38.01055 -250.74686,154.03931 -272.14513,154.03931 -1.22469,0 -1.78015,-0.38004 -1.78015,-1.10065 0,-2.31647 5.74091,-8.20053 14.24173,-16.9133 25.04364,-25.66783 77.19173,-79.11594 77.19173,-142.70816 0,-94.07927 -114.135026,-143.66382 -137.915089,-143.66382 -2.640917,0 -4.088378,0.61152 -4.088378,1.80017 0,12.32387 155.595707,66.28356 225.608767,66.28356 24.09188,0 28.86339,-6.38922 28.86339,-12.14091 0,-10.29494 -15.28701,-25.74088 -31.06252,-41.68043 -15.78651,-15.95068 -33.82319,-34.17497 -33.82319,-45.63877 0,-7.38965 7.4944,-10.240525 17.97871,-10.240525 49.96155,0 185.80668,64.739255 185.80668,157.942295 z"
       style="fill:#ddddff;fill-opacity:1;fill-rule:evenodd;stroke:#000000;stroke-width:2.57298994px;stroke-miterlimit:20;stroke-opacity:1"
       id="path8"
       inkscape:connector-curvature="0" />
  </g>
</svg>
